<svg width="17" height="18" viewBox="0 0 17 18" fill="none" xmlns="http://www.w3.org/2000/svg">
<g clip-path="url(#clip0_2513_654)">
<path fill-rule="evenodd" clip-rule="evenodd" d="M8.49958 1.26119C4.92771 1.26119 2.03555 4.14745 2.03555 7.70386C2.03555 9.96955 3.3978 12.2344 4.95002 13.962C5.72025 14.8193 6.52214 15.5272 7.19305 16.0177C7.52891 16.2633 7.82627 16.4503 8.06581 16.574C8.32355 16.7071 8.46188 16.7388 8.49958 16.7388C8.53728 16.7388 8.67563 16.7071 8.9334 16.574C9.17297 16.4503 9.47036 16.2633 9.80626 16.0177C10.4773 15.5271 11.2793 14.8193 12.0496 13.962C13.602 12.2344 14.9645 9.96953 14.9645 7.70386C14.9645 4.14752 12.0715 1.26119 8.49958 1.26119ZM1.27502 7.70386C1.27502 3.72429 4.51046 0.5 8.49958 0.5C12.4886 0.5 15.725 3.72422 15.725 7.70386C15.725 10.2513 14.2118 12.6942 12.6151 14.471C11.8108 15.366 10.9699 16.1096 10.2549 16.6324C9.89778 16.8935 9.56639 17.1037 9.28208 17.2505C9.01596 17.3879 8.73532 17.5 8.49958 17.5C8.26383 17.5 7.9832 17.3879 7.71711 17.2505C7.43281 17.1037 7.10146 16.8935 6.7444 16.6324C6.02946 16.1096 5.18864 15.366 4.38452 14.471C2.78803 12.6941 1.27502 10.2513 1.27502 7.70386ZM5.83818 7.73181C5.83818 6.25991 7.02988 5.06716 8.50049 5.06716C9.97027 5.06716 11.1619 6.26001 11.1619 7.73181C11.1619 9.20278 9.97017 10.3955 8.50049 10.3955C7.02998 10.3955 5.83818 9.20288 5.83818 7.73181ZM8.50049 5.82836C7.44991 5.82836 6.59871 6.68031 6.59871 7.73181C6.59871 8.78228 7.44981 9.63433 8.50049 9.63433C9.55014 9.63433 10.4013 8.78238 10.4013 7.73181C10.4013 6.68021 9.55004 5.82836 8.50049 5.82836Z" fill="#9DA1AF"/>
</g>
<defs>
<clipPath id="clip0_2513_654">
<rect width="17" height="17" fill="white" transform="translate(0 0.5)"/>
</clipPath>
</defs>
</svg>
