<svg width="270" height="28" viewBox="0 0 270 28" xmlns="http://www.w3.org/2000/svg">
<path d="M74.2817 8.28977L77.5606 5.85352H66.585V20.4877H77.5606V18.0514H69.7171V14.304H76.4083V11.8677H69.7171V8.28977H74.2817Z"/>
<path d="M57.2308 18.0464H53.7887V13.9899H57.2308C59.3263 13.9899 60.3028 14.6679 60.3028 16.0173C60.3028 17.3966 59.2689 18.0464 57.2308 18.0464ZM57.8059 11.5536H53.7887V8.28977H60.202L63.658 5.85352H50.4873V20.4877H57.3802C61.2463 20.4877 63.4617 18.8125 63.4617 15.891C63.4617 13.0975 61.4531 11.5586 57.8042 11.5586"/>
<path d="M86.8897 13.9024H83.881V8.29393H86.8897C89.0628 8.29393 90.261 9.29069 90.261 11.1015C90.261 12.9123 89.0628 13.9074 86.8897 13.9074V13.9024ZM86.9612 5.8585H80.4883V20.4877H83.881V16.3395H86.9612C91.0931 16.3395 93.659 14.3177 93.659 11.0898C93.659 7.86199 91.0931 5.85352 86.9612 5.85352"/>
<path d="M44.7154 17.7807C43.8479 18.2451 42.8757 18.4856 41.889 18.48C38.9369 18.48 36.793 16.4008 36.793 13.5339C36.793 10.6669 38.9369 8.58776 41.889 8.58776C42.9556 8.57243 43.9991 8.89438 44.867 9.50654L47.216 7.80509L47.0609 7.67067C45.6822 6.47965 43.8571 5.85352 41.7615 5.85352C39.4901 5.85352 37.4272 6.60896 35.9555 7.98374C34.4837 9.35852 33.6582 11.3033 33.6582 13.4505C33.6582 15.5978 34.4699 17.5834 35.9468 19.0075C37.4238 20.4316 39.4849 21.2194 41.7408 21.2194C44.1018 21.2194 46.163 20.4061 47.5606 18.9275L45.4409 17.3894L44.7154 17.7807Z"/>
<path d="M114.147 19.3428C113.914 19.6059 113.641 19.8338 113.338 20.0187C112.951 20.2584 112.538 20.4578 112.107 20.6136C111.594 20.803 111.065 20.9489 110.525 21.0495C109.909 21.1663 109.282 21.2229 108.654 21.2185C107.481 21.2332 106.313 21.0537 105.203 20.6879C104.221 20.3625 103.32 19.8446 102.557 19.167C101.815 18.4892 101.234 17.6655 100.854 16.7522C100.433 15.7232 100.226 14.6249 100.245 13.5194C100.232 12.4632 100.436 11.4147 100.843 10.4337C101.225 9.51726 101.804 8.68901 102.543 8.00367C103.31 7.30644 104.218 6.76757 105.21 6.42025C106.327 6.03073 107.508 5.83948 108.697 5.85583C109.762 5.83291 110.824 5.98025 111.84 6.29182C112.543 6.50589 113.213 6.80998 113.832 7.19591V10.8967C113.574 10.5496 113.279 10.2291 112.953 9.94027C112.597 9.62103 112.203 9.34259 111.78 9.11054C111.327 8.86143 110.844 8.66514 110.342 8.52584C109.806 8.37546 109.251 8.30033 108.693 8.30278C107.913 8.29096 107.138 8.42052 106.407 8.68469C105.761 8.91965 105.173 9.28233 104.681 9.74932C104.199 10.2163 103.829 10.7786 103.596 11.397C103.338 12.082 103.211 12.8061 103.22 13.5346C103.218 14.2248 103.337 14.9104 103.572 15.5625C103.788 16.1851 104.142 16.7551 104.61 17.2328C105.078 17.7105 105.649 18.0845 106.283 18.3288C107.029 18.6172 107.826 18.7652 108.63 18.7648C109.259 18.7702 109.886 18.6987 110.497 18.5519C111.035 18.4213 111.555 18.2283 112.046 17.9773C112.494 17.751 112.908 17.4667 113.276 17.1324C113.618 16.8221 113.909 16.4637 114.14 16.0695L114.147 19.3428Z"/>
<path d="M128.049 8.25683H122.806V20.4877H120.03V8.25683H114.878V5.85352H128.049V8.25683Z"/>
<path d="M132.348 15.9302V20.4877H129.513V5.85352H134.801C137.314 5.85352 139.134 6.26819 140.262 7.09753C141.39 7.92687 141.953 9.16368 141.952 10.808C141.952 12.522 141.346 13.8042 140.136 14.6546C138.925 15.505 137.146 15.9302 134.801 15.9302H132.348ZM132.348 8.25683V13.5252H135.004C136.335 13.5252 137.334 13.3126 138 12.8874C138.666 12.4622 138.999 11.748 138.999 10.7449C138.999 9.84022 138.689 9.19911 138.069 8.82154C137.448 8.44396 136.442 8.25572 135.05 8.25683H132.348Z"/>
<path d="M158.049 20.4877H155.049L153.539 17.0164H146.305L144.816 20.4877H141.951L148.36 5.85352H151.561L158.049 20.4877ZM152.497 14.6131L149.906 8.61226L147.318 14.6131H152.497Z"/>
<path d="M163.38 13.0452L158.327 5.85352H161.525L165.342 11.3926L169.4 5.85352H172.492L167.16 12.899L172.683 20.4877H169.501L165.266 14.5915L161.171 20.4877H158.049L163.38 13.0452Z"/>
<path d="M173.416 13.518C173.404 12.4621 173.597 11.4139 173.984 10.4303C174.349 9.51834 174.901 8.69188 175.606 8.00375C176.331 7.30825 177.193 6.76882 178.138 6.41933C179.203 6.02911 180.331 5.83762 181.466 5.85455C182.585 5.84052 183.699 6.01961 184.757 6.38382C185.703 6.70957 186.569 7.22797 187.301 7.90568C188.015 8.58402 188.572 9.40864 188.932 10.3221C189.333 11.3532 189.53 12.4516 189.511 13.5569C189.524 14.6121 189.331 15.6599 188.944 16.6428C188.58 17.5553 188.028 18.382 187.322 19.0694C186.594 19.767 185.728 20.3071 184.779 20.6555C183.717 21.0425 182.593 21.2333 181.462 21.2186C180.342 21.2315 179.228 21.0554 178.167 20.6978C177.221 20.3782 176.354 19.863 175.623 19.186C174.907 18.5052 174.351 17.6768 173.993 16.7595C173.593 15.7255 173.398 14.6251 173.416 13.518ZM176.249 13.5383C176.246 14.2339 176.361 14.925 176.59 15.5826C176.799 16.1998 177.14 16.7654 177.588 17.2414C178.05 17.7236 178.61 18.1044 179.23 18.3592C180.651 18.9026 182.223 18.914 183.652 18.3913C184.263 18.1518 184.818 17.7897 185.282 17.3277C185.744 16.8571 186.099 16.2945 186.324 15.6773C186.574 14.9917 186.698 14.2672 186.689 13.5383C186.691 12.8433 186.576 12.1528 186.348 11.4956C186.138 10.8777 185.797 10.3115 185.349 9.83506C184.886 9.3538 184.327 8.97318 183.708 8.71734C182.989 8.42797 182.219 8.287 181.443 8.30305C180.702 8.2918 179.966 8.42153 179.274 8.68521C178.656 8.92048 178.098 9.2859 177.636 9.75623C177.175 10.2266 176.822 10.7906 176.602 11.4093C176.359 12.0929 176.24 12.8136 176.249 13.5383Z"/>
<path d="M192.438 20.4853V5.85352H198.778C202.059 5.85352 203.699 7.06577 203.699 9.49028C203.725 10.2224 203.545 10.9471 203.179 11.581C202.831 12.1346 202.281 12.5591 201.53 12.8547C202.435 13.0097 203.097 13.3689 203.518 13.9325C203.939 14.496 204.148 15.2587 204.144 16.2208C204.161 16.8907 204.026 17.5557 203.748 18.1654C203.491 18.6996 203.099 19.1575 202.612 19.4939C202.068 19.8575 201.458 20.1129 200.818 20.2461C200.034 20.4155 199.233 20.4963 198.431 20.4869L192.438 20.4853ZM198.402 12.0393C199.237 12.0393 199.895 11.8655 200.374 11.5179C200.606 11.3535 200.793 11.1336 200.919 10.878C201.044 10.6225 201.104 10.3395 201.093 10.0549C201.107 9.79841 201.059 9.54223 200.952 9.30886C200.845 9.07549 200.682 8.87206 200.478 8.71643C200.067 8.41088 199.396 8.25755 198.465 8.25644H195.046V12.0393H198.402ZM198.591 18.0807C199.592 18.0807 200.329 17.9146 200.801 17.5825C201.274 17.2504 201.51 16.7317 201.51 16.0265C201.51 15.3158 201.26 14.8137 200.76 14.5203C200.26 14.2269 199.55 14.0808 198.633 14.0819H195.046V18.0674L198.591 18.0807Z"/>
<path d="M220.976 20.4877H218.251L216.877 17.0164H210.299L208.947 20.4877H206.342L212.16 5.85352H215.071L220.976 20.4877ZM215.929 14.6131L213.578 8.61226L211.221 14.6131H215.929Z"/>
<path d="M234.471 14.153H226.502V20.4877H223.902V5.85352H226.502V11.748H234.471V5.85352H237.073V20.4877H234.471V14.153Z"/>
<path d="M244.019 16.7872L251.847 5.85352H254.635V20.4877H252.082V9.38624L244.211 20.4877H241.464V5.85352H244.027L244.019 16.7872Z"/>
<path d="M268.997 14.153H262.342V18.0827H270V20.4877H259.756V5.85352H269.771V8.25683H262.342V11.7447H269.005L268.997 14.153Z"/>
<path d="M23.5024 5.85352C24.0474 6.59787 24.5088 7.40648 24.8776 8.26316L13.8811 16.8291L9.51172 13.9322V10.4516L13.8811 13.3469L23.5024 5.85352Z"/>
<path d="M23.0018 3.76968C20.6681 1.4401 17.7112 0.235158 14.4174 0.0270498C11.1236 -0.181058 7.86678 0.817057 5.25741 2.83433C2.64805 4.8516 0.865235 7.74954 0.243122 10.985C-0.378992 14.2205 0.202299 17.5714 1.87804 20.4096C3.55379 23.2479 6.20896 25.3787 9.3459 26.4027C12.4828 27.4267 15.8862 27.2736 18.9182 25.972C21.9501 24.6705 24.4024 22.3098 25.8156 19.3326C27.2287 16.3553 27.4319 12.8477 26.5208 9.68122L23.431 11.9088C24.0995 14.232 23.5889 15.6047 22.5521 17.7891C21.5153 19.9735 19.716 21.7055 17.4915 22.6604C15.2669 23.6153 12.7699 23.7277 10.4683 22.9764C8.16679 22.2251 6.21871 20.6617 4.98922 18.5793C3.75973 16.4969 3.33325 14.0384 3.78969 11.6645C4.24613 9.29066 5.55417 7.16446 7.46864 5.6844C9.38312 4.20434 11.7726 3.47202 14.1893 3.62471C16.6059 3.7774 18.3714 4.20234 20.0837 5.91154L23.0018 3.76968Z"/>
</svg>
