<svg width="24" height="24" viewBox="0 0 24 24" fill="none" xmlns="http://www.w3.org/2000/svg">
<path fill-rule="evenodd" clip-rule="evenodd" d="M13.3413 1.79688L12.0141 3.59251C11.1598 4.74817 10.7488 6.17204 10.8557 7.60516C10.9625 9.03827 11.5802 10.3854 12.5964 11.4016C13.6126 12.4178 14.9597 13.0355 16.3929 13.1423C17.826 13.2492 19.2498 12.8382 20.4055 11.9839L22.2011 10.6567L21.9957 12.8801C21.8209 14.7715 21.1111 16.5739 19.9493 18.0766C18.7875 19.5792 17.2218 20.7199 15.4353 21.3652C13.6489 22.0104 11.7156 22.1336 9.86177 21.7202C8.0079 21.3069 6.3101 20.3741 4.96702 19.031C3.62394 17.6879 2.69115 15.9901 2.27778 14.1362C1.86441 12.2824 1.98757 10.3491 2.63284 8.56268C3.27811 6.77625 4.4188 5.21054 5.92145 4.04874C7.4241 2.88695 9.22654 2.17713 11.1179 2.00235L13.3413 1.79688ZM9.31629 4.43717C8.53868 4.71852 7.8055 5.12013 7.14478 5.63098C5.94266 6.56041 5.0301 7.81298 4.51389 9.24213C3.99767 10.6713 3.89914 12.2179 4.22984 13.701C4.56054 15.1841 5.30677 16.5423 6.38123 17.6168C7.45569 18.6912 8.81394 19.4375 10.297 19.7682C11.7801 20.0989 13.3267 20.0003 14.7559 19.4841C16.185 18.9679 17.4376 18.0553 18.367 16.8532C18.8779 16.1925 19.2795 15.4593 19.5608 14.6817C18.5077 15.0627 17.3781 15.2214 16.2441 15.1368C14.3333 14.9943 12.5371 14.1707 11.1822 12.8158C9.82729 11.4609 9.0037 9.6647 8.8612 7.75389C8.77664 6.61992 8.93528 5.49029 9.31629 4.43717Z" fill="#19BB4F"/>
</svg>
