<svg width="13" height="17" viewBox="0 0 13 17" fill="none" xmlns="http://www.w3.org/2000/svg">
<path fill-rule="evenodd" clip-rule="evenodd" d="M2.79646 4.46161C2.79673 2.29902 4.5504 0.546428 6.71289 0.546428C8.87563 0.546428 10.6286 2.29938 10.6286 4.46213C10.6286 6.62479 8.87572 8.37857 6.71289 8.37857H6.68744L6.68641 8.37857C4.53125 8.37126 2.78943 6.61731 2.79646 4.46161ZM6.71289 1.15357C4.88538 1.15357 3.4036 2.63477 3.4036 4.46213L3.4036 4.46315C3.39743 6.28377 4.86835 7.76501 6.688 7.77143H6.71289C8.54023 7.77143 10.0214 6.28964 10.0214 4.46213C10.0214 2.63469 8.54032 1.15357 6.71289 1.15357ZM2.58733 11.2277C3.68361 10.8621 5.15905 10.7464 6.71289 10.7464C8.27563 10.7464 9.75122 10.8665 10.8456 11.2367C11.3943 11.4223 11.8695 11.678 12.2102 12.0332C12.558 12.3957 12.7536 12.8501 12.7536 13.3958C12.7536 13.9423 12.5565 14.396 12.2069 14.7569C11.8645 15.1104 11.3876 15.3637 10.8381 15.547C9.742 15.9127 8.26675 16.0286 6.71289 16.0286C5.15018 16.0286 3.6744 15.9087 2.57984 15.5386C2.03102 15.353 1.55572 15.0974 1.21492 14.7422C0.867024 14.3796 0.671436 13.9251 0.671436 13.3792C0.671436 12.8326 0.868576 12.3788 1.21828 12.0177C1.56069 11.6642 2.03771 11.4109 2.58733 11.2277ZM1.65438 12.4402C1.41181 12.6906 1.27858 12.9939 1.27858 13.3792C1.27858 13.7651 1.41127 14.0698 1.65302 14.3218C1.90188 14.5812 2.27761 14.7955 2.7743 14.9634C3.77076 15.3003 5.16393 15.4214 6.71289 15.4214C8.25393 15.4214 9.64723 15.3043 10.646 14.9711C11.1439 14.805 11.5209 14.5925 11.7707 14.3345C12.0133 14.0841 12.1464 13.7809 12.1464 13.3958C12.1464 13.0101 12.0138 12.7054 11.7721 12.4535C11.5233 12.1942 11.1477 11.9798 10.6511 11.8119C9.65479 11.4749 8.26182 11.3536 6.71289 11.3536C5.17182 11.3536 3.77832 11.4706 2.77938 11.8036C2.2814 11.9697 1.90425 12.1822 1.65438 12.4402Z"/>
<path fill-rule="evenodd" clip-rule="evenodd" d="M2.69021 4.46143C2.69058 2.24021 4.49181 0.440178 6.71289 0.440178C8.93431 0.440178 10.7348 2.2407 10.7348 4.46213C10.7348 6.68344 8.93443 8.48482 6.71289 8.48482H6.68744L6.68624 8.48482C4.47244 8.47732 2.68308 6.6757 2.69021 4.46143ZM6.71289 0.652678C4.60905 0.652678 2.90298 2.35773 2.90271 4.46163C2.89587 6.55861 4.59021 8.26511 6.68658 8.27232C6.68664 8.27232 6.68651 8.27232 6.68658 8.27232M6.6876 8.27232H6.71289C8.81701 8.27232 10.5223 6.56614 10.5223 4.46213C10.5223 2.35806 8.81695 0.652678 6.71289 0.652678M6.6876 8.27232L6.68658 8.27232ZM6.71289 1.25982C4.94403 1.25982 3.50985 2.69348 3.50985 4.46213L3.50985 4.46334C3.50388 6.22523 4.9273 7.65884 6.68815 7.66518C6.68822 7.66518 6.68807 7.66518 6.68815 7.66518H6.71289C8.48153 7.66518 9.91518 6.23099 9.91518 4.46213C9.91518 2.69337 8.48164 1.25982 6.71289 1.25982ZM3.29735 4.46213C3.29735 2.57607 4.82673 1.04732 6.71289 1.04732C8.599 1.04732 10.1277 2.57601 10.1277 4.46213C10.1277 6.34829 8.59894 7.87768 6.71289 7.87768H6.688C4.80967 7.87105 3.29101 6.34209 3.29735 4.46286M2.55372 11.1269C3.66703 10.7557 5.15681 10.6402 6.71289 10.6402C8.27806 10.6402 9.7681 10.7601 10.8796 11.1361C11.4375 11.3248 11.9301 11.5877 12.2869 11.9596C12.6533 12.3415 12.8598 12.8221 12.8598 13.3958C12.8598 13.9705 12.6515 14.4505 12.2832 14.8309C11.9247 15.201 11.4303 15.4615 10.8717 15.6478C9.75859 16.0192 8.26901 16.1348 6.71289 16.1348C5.14776 16.1348 3.65753 16.0151 2.54581 15.6392C1.98787 15.4506 1.49514 15.1877 1.13825 14.8157C0.771785 14.4338 0.565186 13.9531 0.565186 13.3792C0.565186 12.8043 0.773514 12.3242 1.14196 11.9438C1.50056 11.5736 1.99507 11.3132 2.55372 11.1269ZM6.71289 10.8527C5.1613 10.8527 3.70019 10.9686 2.62094 11.3285C2.08036 11.5087 1.62081 11.7549 1.2946 12.0917C0.963638 12.4333 0.777686 12.8608 0.777686 13.3792C0.777686 13.8971 0.962262 14.3254 1.29159 14.6686C1.6163 15.007 2.07417 15.2555 2.61387 15.4379C3.69127 15.8022 5.1526 15.9223 6.71289 15.9223C8.2645 15.9223 9.72541 15.8062 10.8045 15.4462C11.345 15.2659 11.8044 15.0197 12.1305 14.683C12.4614 14.3414 12.6473 13.914 12.6473 13.3958C12.6473 12.8781 12.4628 12.4499 12.1336 12.1067C11.8089 11.7683 11.3511 11.5199 10.8115 11.3374C9.73433 10.973 8.2732 10.8527 6.71289 10.8527ZM6.71289 11.4598C5.17404 11.4598 3.79488 11.577 2.81299 11.9044C2.32404 12.0675 1.96437 12.2728 1.7307 12.5141C1.50688 12.7451 1.38483 13.0221 1.38483 13.3792C1.38483 13.7371 1.50651 14.0156 1.72969 14.2483C1.96246 14.4909 2.32076 14.6979 2.80833 14.8628C3.78762 15.1939 5.16632 15.3152 6.71289 15.3152C8.25169 15.3152 9.63065 15.1978 10.6123 14.8703C11.1012 14.7072 11.4608 14.5018 11.6944 14.2606C11.9182 14.0296 12.0402 13.7527 12.0402 13.3958C12.0402 13.0381 11.9186 12.7596 11.6954 12.527C11.4627 12.2845 11.1045 12.0774 10.617 11.9125C9.63792 11.5813 8.25941 11.4598 6.71289 11.4598ZM2.74578 11.7029C3.76175 11.3641 5.1696 11.2473 6.71289 11.2473C8.26422 11.2473 9.67166 11.3684 10.6851 11.7112C11.1908 11.8823 11.5839 12.1038 11.8488 12.3799C12.109 12.6513 12.2527 12.9821 12.2527 13.3958C12.2527 13.8092 12.1083 14.1387 11.8471 14.4085C11.5811 14.6831 11.1865 14.9028 10.6796 15.0719C9.66381 15.4107 8.25616 15.5277 6.71289 15.5277C5.16153 15.5277 3.7539 15.4068 2.74027 15.0641C2.23445 14.8931 1.8413 14.6715 1.57636 14.3954C1.31602 14.124 1.17233 13.7931 1.17233 13.3792C1.17233 12.9657 1.31674 12.636 1.57806 12.3662C1.84412 12.0916 2.23875 11.8719 2.74578 11.7029Z"/>
</svg>
