<svg width="96" height="97" viewBox="0 0 96 97" fill="none" xmlns="http://www.w3.org/2000/svg">
<path d="M2.05615e-07 88.0061H96V96.0061H2.05615e-07V88.0061ZM96 31.6421V40.0061H84V72.0061H92V80.0061H4V72.0061H12V40.0061H2.05615e-07V31.6421C-0.000398818 29.4863 0.57998 27.3702 1.68013 25.5162C2.78028 23.6622 4.35957 22.1388 6.252 21.1061L42.252 1.47013C44.0143 0.505568 45.991 0 48 0C50.009 0 51.9857 0.505568 53.748 1.47013L89.748 21.1061C91.6404 22.1388 93.2197 23.6622 94.3199 25.5162C95.42 27.3702 96.0004 29.4863 96 31.6421ZM20 72.0061H32V40.0061H20V72.0061ZM40 40.0061V72.0061H56V40.0061H40ZM76 40.0061H64V72.0061H76V40.0061ZM88 31.6421C88.0001 30.9235 87.8067 30.2181 87.44 29.6001C87.0732 28.9821 86.5468 28.4743 85.916 28.1301L49.916 8.49413C49.3283 8.17344 48.6695 8.00539 48 8.00539C47.3305 8.00539 46.6717 8.17344 46.084 8.49413L10.084 28.1301C9.45319 28.4743 8.92676 28.9821 8.56004 29.6001C8.19333 30.2181 7.99987 30.9235 8 31.6421V32.0061H88V31.6421Z" fill="white" fill-opacity="0.1"/>
</svg>
